<svg width="44" height="44" viewBox="0 0 44 44" fill="none" xmlns="http://www.w3.org/2000/svg">
<rect width="44" height="44" rx="22" fill="#434343"/>
<path d="M21.4523 11.0825C21.5063 10.9845 21.5855 10.9028 21.6818 10.8459C21.7781 10.789 21.8879 10.7589 21.9998 10.7589C22.1117 10.7589 22.2215 10.789 22.3178 10.8459C22.4141 10.9028 22.4933 10.9845 22.5473 11.0825L26.2373 18.0875C26.3253 18.2497 26.4481 18.3904 26.5969 18.4995C26.7458 18.6086 26.9169 18.6834 27.098 18.7186C27.2792 18.7537 27.4659 18.7483 27.6447 18.7027C27.8235 18.6572 27.99 18.5726 28.1323 18.455L33.4785 13.875C33.5812 13.7915 33.7076 13.7428 33.8397 13.7358C33.9718 13.7287 34.1028 13.7638 34.2137 13.8359C34.3246 13.9081 34.4097 14.0135 34.4569 14.1371C34.504 14.2607 34.5107 14.3961 34.476 14.5238L30.9335 27.3313C30.8612 27.5933 30.7055 27.8247 30.4898 27.9903C30.2742 28.1558 30.0104 28.2466 29.7385 28.2488H14.2623C13.9902 28.2469 13.7262 28.1562 13.5103 27.9906C13.2944 27.8251 13.1384 27.5935 13.066 27.3313L9.5248 14.525C9.49011 14.3973 9.49682 14.262 9.54397 14.1384C9.59112 14.0148 9.67628 13.9093 9.78717 13.8372C9.89807 13.7651 10.029 13.73 10.1611 13.737C10.2932 13.744 10.4197 13.7928 10.5223 13.8763L15.8673 18.4563C16.0095 18.5738 16.1761 18.6584 16.3549 18.704C16.5337 18.7495 16.7204 18.755 16.9015 18.7198C17.0827 18.6847 17.2538 18.6099 17.4027 18.5008C17.5515 18.3917 17.6743 18.251 17.7623 18.0888L21.4523 11.0825Z" stroke="white" stroke-width="2" stroke-linecap="round" stroke-linejoin="round"/>
<path d="M13.25 33.25H30.75" stroke="white" stroke-width="2" stroke-linecap="round" stroke-linejoin="round"/>
</svg>
